<svg width="57" height="55" viewBox="0 0 57 55" fill="none" xmlns="http://www.w3.org/2000/svg">
<path fill-rule="evenodd" clip-rule="evenodd" d="M39.5801 4.60702C42.9966 4.40098 46.3656 5.54563 48.9042 7.78915C51.2294 10.2387 52.4156 13.4895 52.2258 16.809V38.191C52.4394 41.5105 51.2294 44.7613 48.928 47.2109C46.3893 49.4544 42.9966 50.599 39.5801 50.393H17.4203C13.9801 50.599 10.6111 49.4544 8.07241 47.2109C5.7473 44.7613 4.56102 41.5105 4.77455 38.191V16.809C4.56102 13.4895 5.7473 10.2387 8.07241 7.78915C10.6111 5.54563 13.9801 4.40098 17.4203 4.60702H39.5801ZM26.0802 38.6031L42.0476 23.1503C43.4948 21.731 43.4948 19.4417 42.0476 18.0452L38.9632 15.0691C37.4922 13.6497 35.1197 13.6497 33.6487 15.0691L32.0591 16.6258C31.8218 16.8548 31.8218 17.2439 32.0591 17.4729C32.0591 17.4729 35.8314 21.09 35.9026 21.1815C36.1636 21.4563 36.3297 21.8225 36.3297 22.2346C36.3297 23.0588 35.6416 23.7456 34.7638 23.7456C34.3605 23.7456 33.9808 23.5853 33.7199 23.3335L29.7577 19.5332C29.5679 19.3501 29.2357 19.3501 29.0459 19.5332L17.7288 30.4532C16.9458 31.2087 16.495 32.216 16.4713 33.2919L16.329 38.7176C16.329 39.0152 16.4239 39.2899 16.6374 39.4959C16.8509 39.702 17.1356 39.8164 17.4441 39.8164H23.0196C24.1584 39.8164 25.2498 39.3815 26.0802 38.6031Z" fill="white"/>
</svg>
