<svg width="58" height="58" viewBox="0 0 58 58" fill="none" xmlns="http://www.w3.org/2000/svg">
<path d="M22.0757 50.2023V42.8128C22.0757 40.9264 23.616 39.3973 25.5162 39.3973H32.4621C33.3746 39.3973 34.2497 39.7571 34.8949 40.3976C35.5401 41.0382 35.9026 41.9069 35.9026 42.8128V50.2023C35.8968 50.9865 36.2066 51.7406 36.7632 52.2971C37.3198 52.8537 38.0771 53.1667 38.8671 53.1666H43.6059C45.8191 53.1724 47.9436 52.3036 49.5106 50.752C51.0776 49.2004 51.9583 47.0935 51.9583 44.8964V23.8449C51.9582 22.0701 51.1658 20.3866 49.7944 19.248L33.6738 6.46669C30.8696 4.2257 26.8518 4.29806 24.1313 6.63854L8.37857 19.248C6.94242 20.3531 6.08404 22.0415 6.04163 23.8449V44.8749C6.04163 49.4543 9.78113 53.1666 14.394 53.1666H19.0247C20.6654 53.1667 21.9989 51.8525 22.0108 50.2237L22.0757 50.2023Z" fill="white"/>
</svg>
