<svg width="54" height="53" viewBox="0 0 54 53" fill="none" xmlns="http://www.w3.org/2000/svg">
<path fill-rule="evenodd" clip-rule="evenodd" d="M10.2148 4.41667H17.8198C20.9923 4.41667 23.5348 6.95626 23.5348 10.0722V17.6004C23.5348 20.7363 20.9923 23.2538 17.8198 23.2538H10.2148C7.06476 23.2538 4.49976 20.7363 4.49976 17.6004V10.0722C4.49976 6.95626 7.06476 4.41667 10.2148 4.41667ZM10.2148 29.7456H17.8198C20.9923 29.7456 23.5348 32.2653 23.5348 35.4011V42.9293C23.5348 46.0431 20.9923 48.5827 17.8198 48.5827H10.2148C7.06476 48.5827 4.49976 46.0431 4.49976 42.9293V35.4011C4.49976 32.2653 7.06476 29.7456 10.2148 29.7456ZM43.7851 4.41667H36.1801C33.0076 4.41667 30.4651 6.95626 30.4651 10.0722V17.6004C30.4651 20.7363 33.0076 23.2538 36.1801 23.2538H43.7851C46.9351 23.2538 49.5001 20.7363 49.5001 17.6004V10.0722C49.5001 6.95626 46.9351 4.41667 43.7851 4.41667ZM36.1801 29.7456H43.7851C46.9351 29.7456 49.5001 32.2653 49.5001 35.4011V42.9293C49.5001 46.0431 46.9351 48.5827 43.7851 48.5827H36.1801C33.0076 48.5827 30.4651 46.0431 30.4651 42.9293V35.4011C30.4651 32.2653 33.0076 29.7456 36.1801 29.7456Z" fill="white"/>
</svg>
