<svg width="52" height="51" viewBox="0 0 52 51" fill="none" xmlns="http://www.w3.org/2000/svg">
<path fill-rule="evenodd" clip-rule="evenodd" d="M19.2351 13.5544C19.2351 17.5211 15.9009 20.7362 11.7843 20.7362C7.67002 20.7362 4.33337 17.5211 4.33337 13.5544C4.33337 9.59009 7.67002 6.375 11.7843 6.375C15.9009 6.375 19.2351 9.59009 19.2351 13.5544ZM44.4023 10.4089C46.203 10.4089 47.6667 11.8193 47.6667 13.5544C47.6667 15.2919 46.203 16.7023 44.4023 16.7023H30.1553C28.3522 16.7023 26.8885 15.2919 26.8885 13.5544C26.8885 11.8193 28.3522 10.4089 30.1553 10.4089H44.4023ZM7.60021 33.9107H21.8472C23.6503 33.9107 25.114 35.321 25.114 37.0585C25.114 38.7936 23.6503 40.2063 21.8472 40.2063H7.60021C5.79707 40.2063 4.33337 38.7936 4.33337 37.0585C4.33337 35.321 5.79707 33.9107 7.60021 33.9107ZM40.2159 44.1528C44.3325 44.1528 47.6668 40.9377 47.6668 36.9733C47.6668 33.0067 44.3325 29.7916 40.2159 29.7916C36.1016 29.7916 32.765 33.0067 32.765 36.9733C32.765 40.9377 36.1016 44.1528 40.2159 44.1528Z" fill="white"/>
</svg>
