<svg width="55" height="53" viewBox="0 0 55 53" fill="none" xmlns="http://www.w3.org/2000/svg">
<path d="M41.8334 41.0833H38.2501V38.1667C38.2501 37.0064 37.6838 35.8936 36.6758 35.0731C35.6678 34.2526 34.3006 33.7917 32.8751 33.7917H22.1251C20.6995 33.7917 19.3324 34.2526 18.3244 35.0731C17.3164 35.8936 16.7501 37.0064 16.7501 38.1667V41.0833H13.1667V38.1667C13.1667 36.2328 14.1106 34.3781 15.7906 33.0107C17.4706 31.6432 19.7492 30.875 22.1251 30.875H32.8751C35.251 30.875 37.5296 31.6432 39.2096 33.0107C40.8896 34.3781 41.8334 36.2328 41.8334 38.1667V41.0833ZM27.5001 27.9583C26.0884 27.9583 24.6905 27.732 23.3862 27.2923C22.082 26.8526 20.8969 26.208 19.8987 25.3955C18.9005 24.583 18.1086 23.6184 17.5684 22.5568C17.0281 21.4952 16.7501 20.3574 16.7501 19.2083C16.7501 18.0593 17.0281 16.9215 17.5684 15.8599C18.1086 14.7983 18.9005 13.8337 19.8987 13.0212C20.8969 12.2086 22.082 11.5641 23.3862 11.1244C24.6905 10.6847 26.0884 10.4583 27.5001 10.4583C30.3512 10.4583 33.0855 11.3802 35.1015 13.0212C37.1175 14.6621 38.2501 16.8877 38.2501 19.2083C38.2501 21.529 37.1175 23.7546 35.1015 25.3955C33.0855 27.0365 30.3512 27.9583 27.5001 27.9583ZM27.5001 25.0417C29.4008 25.0417 31.2237 24.4271 32.5677 23.3331C33.9117 22.2392 34.6667 20.7554 34.6667 19.2083C34.6667 17.6612 33.9117 16.1775 32.5677 15.0836C31.2237 13.9896 29.4008 13.375 27.5001 13.375C25.5994 13.375 23.7765 13.9896 22.4325 15.0836C21.0885 16.1775 20.3334 17.6612 20.3334 19.2083C20.3334 20.7554 21.0885 22.2392 22.4325 23.3331C23.7765 24.4271 25.5994 25.0417 27.5001 25.0417Z" fill="white"/>
<path d="M54 26.5C54 40.5487 42.1708 52 27.5 52C12.8292 52 1 40.5487 1 26.5C1 12.4513 12.8292 1 27.5 1C42.1708 1 54 12.4513 54 26.5Z" stroke="white" stroke-width="2"/>
</svg>
